HIERARCHY
ROOT Hips
{
	OFFSET 0.000000 0.000000 0.000000
	CHANNELS 6 Xposition Yposition Zposition Yrotation Xrotation Zrotation 
	JOINT LeftHip
	{
		OFFSET 0.087450 0.000284 -0.000032
		CHANNELS 3 Yrotation Xrotation Zrotation
		JOINT LeftKnee
		{
			OFFSET 0.000000 -0.456155 0.000080
			CHANNELS 3 Yrotation Xrotation Zrotation
			JOINT LeftAnkle
			{
				OFFSET 0.000000 -0.392056 0.000378
				CHANNELS 3 Yrotation Xrotation Zrotation
				JOINT LeftToe
				{
					OFFSET 0.000000 -0.079886 0.174677
					CHANNELS 3 Yrotation Xrotation Zrotation
					End Site
					{
						OFFSET 0.000000 0.000000 0.000000
					}
				}
			}
		}
	}
	JOINT RightHip
	{
		OFFSET -0.087450 0.000305 -0.000034
		CHANNELS 3 Yrotation Xrotation Zrotation
		JOINT RightKnee
		{
			OFFSET 0.000000 -0.456155 0.000080
			CHANNELS 3 Yrotation Xrotation Zrotation
			JOINT RightAnkle
			{
				OFFSET 0.000000 -0.392056 0.000378
				CHANNELS 3 Yrotation Xrotation Zrotation
				JOINT RightToe
				{
					OFFSET 0.000000 -0.079886 0.174677
					CHANNELS 3 Yrotation Xrotation Zrotation
					End Site
					{
						OFFSET 0.000000 0.000000 0.000000
					}
				}
			}
		}
	}
	JOINT Chest
	{
		OFFSET 0.000000 0.105774 -0.011753
		CHANNELS 3 Yrotation Xrotation Zrotation
		JOINT Chest3
		{
			OFFSET 0.000000 0.191987 -0.009445
			CHANNELS 3 Yrotation Xrotation Zrotation
			JOINT Chest4
			{
				OFFSET 0.000000 0.091765 -0.000120
				CHANNELS 3 Yrotation Xrotation Zrotation
				JOINT Neck
				{
					OFFSET 0.000000 0.125437 0.000000
					CHANNELS 3 Yrotation Xrotation Zrotation
					JOINT Head
					{
						OFFSET 0.000000 0.087991 0.000056
						CHANNELS 3 Yrotation Xrotation Zrotation
						End Site
						{
							OFFSET 0.000000 0.000000 0.000000
						}
					}
				}
				JOINT LeftCollar
				{
					OFFSET 0.025606 0.070386 0.000000
					CHANNELS 3 Yrotation Xrotation Zrotation
					JOINT LeftShoulder
					{
						OFFSET 0.123264 0.000000 0.000000
						CHANNELS 3 Yrotation Xrotation Zrotation
						JOINT LeftElbow
						{
							OFFSET 0.282857 0.000000 0.000000
							CHANNELS 3 Yrotation Xrotation Zrotation
							JOINT LeftWrist
							{
								OFFSET 0.211242 0.000000 0.000104
								CHANNELS 3 Yrotation Xrotation Zrotation
								End Site
								{
									OFFSET 0.000000 0.000000 0.000000
								}
							}
						}
					}
				}
				JOINT RightCollar
				{
					OFFSET -0.025606 0.070386 0.000000
					CHANNELS 3 Yrotation Xrotation Zrotation
					JOINT RightShoulder
					{
						OFFSET -0.123264 0.000000 0.000000
						CHANNELS 3 Yrotation Xrotation Zrotation
						JOINT RightElbow
						{
							OFFSET -0.282857 0.000000 0.000000
							CHANNELS 3 Yrotation Xrotation Zrotation
							JOINT RightWrist
							{
								OFFSET -0.211242 0.000000 0.000104
								CHANNELS 3 Yrotation Xrotation Zrotation
								End Site
								{
									OFFSET 0.000000 0.000000 0.000000
								}
							}
						}
					}
				}
			}
		}
	}
}
MOTION
Frames: 5
Frame Time: 0.016667
0.000000 0.000000 0.000000 187.316531 0.294952 358.691354 1.472179 0.751847 5.949829 358.062931 2.583479 0.617842 0.368239 358.175591 354.237475 0.063637 358.469177 359.879172 341.652895 1.258877 359.857519 355.129074 7.845480 0.567066 336.590295 355.223428 2.903680 0.487974 0.405513 359.432632 359.990956 4.395763 2.475719 359.322860 357.735231 2.224079 355.713190 7.995663 0.914150 358.128204 8.943138 359.197842 357.350324 340.019710 359.752978 359.711842 359.232746 350.476965 358.841662 346.031558 288.470228 293.272198 335.448122 334.663435 11.720705 3.341996 20.249459 1.361914 359.652471 6.312608 359.651141 346.197345 70.507399 70.001181 344.109602 22.029485 353.278040 2.534036 340.098909 
0.000000 0.000000 0.000000 187.060129 0.331582 358.638874 1.513419 0.849445 5.670445 358.187704 2.524780 0.630039 0.561763 357.781325 354.590486 0.217206 358.819474 359.775863 341.672291 1.162560 359.627411 355.242920 7.796538 0.551973 336.739753 355.323765 3.109879 0.438361 0.344740 359.343488 359.998791 4.373685 2.442654 359.327335 357.715405 2.193718 355.777028 7.974902 0.902485 358.176494 8.974326 359.210525 357.558657 340.026768 359.686029 359.735570 359.189025 350.496414 359.110102 346.309953 288.528359 293.233235 335.498102 334.665747 11.684932 3.354052 20.136440 1.320776 359.639819 6.321240 359.533039 346.380720 70.511343 69.963864 344.200453 22.233175 353.310004 2.570019 340.172767 
0.000000 0.000000 0.000000 186.802445 0.372536 358.578795 1.533908 0.897571 5.394913 358.299196 2.566093 0.649491 0.768286 357.313268 354.970786 0.308991 359.102159 359.712825 341.688863 1.085370 359.402778 355.360293 7.703215 0.541218 336.907806 355.461329 3.335951 0.382188 0.154846 359.212117 0.005804 4.347851 2.412144 359.331116 357.692508 2.166137 355.844189 7.954887 0.895303 358.225023 9.010341 359.220190 357.725840 340.041680 359.645362 359.772655 359.145257 350.514449 359.410327 346.592463 288.562284 293.210040 335.596523 334.713844 11.691875 3.339060 20.132742 1.284041 359.639431 6.330537 359.428487 346.552374 70.525221 69.902523 344.269821 22.434607 353.351864 2.579531 340.257833 
0.000000 0.000000 0.000000 186.541459 0.428939 358.539555 1.557785 0.913484 5.099727 358.392660 2.604320 0.658685 0.976104 356.918507 355.336615 0.303268 359.288999 359.729036 341.720219 1.019400 359.172163 355.457829 7.516924 0.523917 337.074723 355.638024 3.554415 0.353656 359.948658 359.069593 0.013409 4.318912 2.375500 359.336803 357.666762 2.132929 355.914977 7.933249 0.885016 358.267208 9.043880 359.226955 357.840808 340.079426 359.654258 359.806812 359.113178 350.535042 359.709487 346.861326 288.586010 293.236343 335.686619 334.789371 11.738569 3.333098 20.251746 1.248863 359.643499 6.342754 359.336328 346.712483 70.553876 69.831317 344.323055 22.623502 353.383485 2.555855 340.367949 
0.000000 0.000000 0.000000 186.265957 0.503218 358.526907 1.589875 0.852136 4.786888 358.468044 2.722781 0.647864 1.166542 356.596496 355.665460 0.220139 359.372214 359.819080 341.764676 0.964525 358.923579 355.558054 7.226214 0.508655 337.243785 355.834992 3.751495 0.308509 359.852894 358.951258 0.021853 4.285688 2.331170 359.344731 357.637033 2.092685 355.990047 7.909068 0.870650 358.305144 9.075433 359.229481 357.904262 340.140771 359.704209 359.842781 359.081667 350.558515 0.014106 347.132909 288.586418 293.315413 335.781905 334.892636 11.810704 3.316291 20.435782 1.215662 359.652901 6.358208 359.261407 346.855617 70.598967 69.744679 344.365057 22.794624 353.406567 2.523767 340.474606 
